<?xml version="1.0" standalone="no"?>
<!DOCTYPE svg PUBLIC "-//W3C//DTD SVG 20010904//EN"
 "http://www.w3.org/TR/2001/REC-SVG-20010904/DTD/svg10.dtd">
<svg height="512pt" viewBox="0 0 512 512" width="512pt" xmlns="http://www.w3.org/2000/svg">

<g transform="translate(0.000000,1262.000000) scale(0.100000,-0.100000)"
fill="#000000" stroke="none">

<path d="M11761 12272 l-401 -328 -336 -415 -336 -414 -2094 -2088 c-1152
-1149 -2098 -2087 -2103 -2085 -15 5 -2640 2551 -2687 2606 -132 152 -265 352
-341 512 -92 193 -146 368 -238 765 -78 338 -119 479 -182 628 -127 301 -371
601 -579 709 -153 80 -317 128 -554 165 -163 25 -569 25 -729 0 -215 -34 -349
-94 -323 -144 30 -55 195 -166 611 -411 157 -92 304 -185 327 -207 35 -34 44
-51 58 -111 28 -126 39 -301 27 -432 -21 -231 -69 -350 -182 -456 -149 -141
-316 -224 -525 -260 -46 -8 -127 35 -299 159 -406 292 -498 354 -600 401 -27
13 -67 24 -88 24 -32 0 -39 -4 -48 -27 -17 -44 -4 -161 31 -264 92 -277 335
-646 622 -944 261 -271 467 -349 1188 -445 164 -22 350 -50 412 -61 320 -57
549 -143 718 -269 36 -27 652 -636 1370 -1354 l1305 -1306 -130 -130 c-71 -71
-135 -130 -142 -130 -7 0 -75 55 -150 123 -76 68 -147 128 -158 134 -11 6
-114 43 -228 83 l-209 73 -191 -191 -191 -191 -1 -128 c0 -115 -3 -134 -27
-191 -43 -102 -88 -170 -178 -265 -259 -274 -601 -483 -824 -504 l-64 -6
-1620 -1621 -1620 -1621 -16 -70 c-10 -38 -22 -86 -27 -106 -29 -115 26 -380
117 -562 129 -257 382 -536 638 -702 159 -104 285 -155 471 -194 149 -31 190
-29 370 21 l70 19 1611 1610 1610 1610 11 78 c32 218 168 457 418 735 135 149
283 249 417 281 73 17 158 19 208 5 l34 -10 193 192 c106 106 193 200 193 209
0 9 -34 111 -74 227 l-75 212 -130 146 c-72 80 -131 149 -131 153 0 3 58 64
129 135 98 98 133 127 147 122 11 -3 926 -914 2035 -2023 1820 -1821 2022
-2027 2079 -2113 78 -118 148 -265 235 -490 91 -236 149 -370 197 -460 204
-376 490 -594 859 -656 287 -48 577 57 819 295 179 177 269 344 320 596 26
129 25 174 -5 322 -83 415 -288 655 -718 839 -43 19 -187 73 -320 120 -382
137 -530 206 -661 308 -31 24 -185 168 -343 322 -158 153 -1074 1041 -2035
1972 -962 931 -1748 1696 -1748 1700 0 4 942 949 2093 2099 l2092 2093 410
332 409 333 309 375 c169 206 317 388 329 404 l21 28 -219 219 c-120 120 -222
219 -226 219 -4 0 -187 -148 -407 -328z m-85 -10518 c41 -19 81 -34 88 -34 8
0 55 18 105 41 50 22 96 37 101 34 6 -3 36 -41 67 -83 31 -42 58 -79 60 -81 2
-3 51 -10 110 -17 64 -7 109 -17 113 -25 5 -7 12 -54 15 -104 4 -51 10 -97 14
-102 3 -5 41 -36 84 -67 43 -32 80 -63 83 -70 3 -7 -14 -53 -36 -103 -22 -50
-40 -95 -40 -101 0 -5 18 -50 40 -98 23 -48 39 -93 38 -100 -2 -7 -41 -41 -88
-76 l-85 -63 -10 -103 c-7 -67 -15 -106 -24 -111 -8 -5 -52 -12 -100 -16 -47
-4 -95 -12 -106 -19 -11 -7 -45 -48 -75 -90 -30 -42 -60 -76 -67 -76 -7 0 -54
18 -103 41 -100 44 -93 45 -206 -7 -41 -19 -81 -34 -88 -34 -7 0 -38 36 -70
80 -31 44 -65 84 -74 89 -9 5 -57 12 -105 16 -51 4 -94 13 -101 21 -8 7 -17
50 -21 101 -4 48 -11 96 -16 105 -5 9 -45 43 -89 74 -44 32 -80 63 -80 70 0 6
18 51 40 99 22 48 40 92 40 97 0 6 -18 51 -40 101 -22 50 -39 96 -36 103 3 7
40 38 83 70 43 31 80 58 82 60 2 2 9 50 15 108 7 58 15 108 19 112 3 3 53 12
111 18 58 7 107 14 109 17 2 2 23 31 47 64 65 90 81 106 103 99 10 -3 52 -21
93 -40z"/>
</g>
</svg>
